{"title":"Vacaciones 2015 [m720p][Spanish,English]","uid":12872346,"size":2867763463,"categoryP":"video","categoryS":"hd___movies","magnet":"?xt=urn:btih:7cc44bc5acaf7a98ce5cd62328b4891824b7fac2&amp;dn=Vacaciones+2015+%5Bm720p%5D%5BSpanish%2CEnglish%5D&amp;tr=udp%3A%2F%2Ftracker.leechers-paradise.org%3A6969&amp;tr=udp%3A%2F%2Fzer0day.ch%3A1337&amp;tr=udp%3A%2F%2Fopen.demonii.com%3A1337&amp;tr=udp%3A%2F%2Ftracker.coppersurfer.tk%3A6969&amp;tr=udp%3A%2F%2Fexodus.desync.com%3A6969","seeders":0,"leechers":0,"uploader":"buker10","files":2,"time":1448900083,"description":"General\r\nComplete name                            : Vacaciones 2015 m720p.mkv\r\nFormat                                   : Matroska\r\nFormat version                           : Version 4 / Version 2\r\nFile size                                : 2.66 GiB\r\nDuration                                 : 1h 39mn\r\nOverall bit rate                         : 3 849 Kbps\r\nMovie name                               : bukermovies.jimdo.com\r\nEncoded date                             : UTC 2015-11-30 09:27:57\r\nWriting application                      : mkvmerge v8.5.2 ('Crosses') 32bit\r\nWriting library                          : libebml v1.3.3 + libmatroska v1.4.4\r\nDURATION                                 : 01:38:59.969000000\r\nNUMBER_OF_FRAMES                         : 1\r\nNUMBER_OF_BYTES                          : 25\r\n_STATISTICS_WRITING_DATE_UTC             : 2015-11-30 09:27:57\r\nAttachment                               : Yes\r\n\r\nVideo\r\nID                                       : 1\r\nFormat                                   : AVC\r\nFormat/Info                              : Advanced Video Codec\r\nFormat profile                           :   \r\nFormat settings, CABAC                   : Yes\r\nFormat settings, ReFrames                : 9 frames\r\nCodec ID                                 : V_MPEG4/ISO/AVC\r\nDuration                                 : 1h 39mn\r\nBit rate                                 : 2 760 Kbps\r\nWidth                                    : 1 280 pixels\r\nHeight                                   : 534 pixels\r\nDisplay aspect ratio                     : 2.40:1\r\nFrame rate                               : 23.976 fps\r\nColor space                              : YUV\r\nChroma subsampling                       : 4:2:0\r\nBit depth                                : 8 bits\r\nScan type                                : Progressive\r\nBits/(Pixel*Frame)                       : 0.168\r\nStream size                              : 1.86 GiB (70%)\r\nWriting library                          : x264 core 146 r2538 121396c\r\nLanguage                                 : Spanish,English\r\n\r\nAudio #1\r\nID                                       : 2\r\nFormat                                   : AC-3\r\nFormat/Info                              : Audio Coding 3\r\nMode extension                           : CM (complete main)\r\nFormat settings, Endianness              : Big\r\nCodec ID                                 : A_AC3\r\nDuration                                 : 1h 39mn\r\nBit rate mode                            : Constant\r\nBit rate                                 : 640 Kbps\r\nChannel(s)                               : 6 channels\r\nChannel positions                        : Front: L C R, Side: L R, LFE\r\nSampling rate                            : 48.0 KHz\r\nBit depth                                : 16 bits\r\nCompression mode                         : Lossy\r\nStream size                              : 453 MiB (17%)\r\nLanguage                                 : Spanish\r\nDefault                                  : Yes\r\nForced                                   : Yes\r\n\r\nAudio #2\r\nID                                       : 3\r\nFormat                                   : AC-3\r\nFormat/Info                              : Audio Coding 3\r\nMode extension                           : CM (complete main)\r\nFormat settings, Endianness              : Big\r\nCodec ID                                 : A_AC3\r\nDuration                                 : 1h 39mn\r\nBit rate mode                            : Constant\r\nBit rate                                 : 448 Kbps\r\nChannel(s)                               : 6 channels\r\nChannel positions                        : Front: L C R, Side: L R, LFE\r\nSampling rate                            : 48.0 KHz\r\nBit depth                                : 16 bits\r\nCompression mode                         : Lossy\r\nStream size                              : 317 MiB (12%)\r\nLanguage                                 : English\r\nDefault                                  : No\r\nForced                                   : No\r\n\r\nText #1\r\nID                                       : 4\r\nFormat                                   : UTF-8\r\nCodec ID                                 : S_TEXT/UTF8\r\nCodec ID/Info                            : UTF-8 Plain Text\r\nTitle                                    : Forzados Spa\r\nLanguage                                 : Spanish\r\nDefault                                  : Yes\r\nForced                                   : Yes\r\n\r\nText #2\r\nID                                       : 5\r\nFormat                                   : UTF-8\r\nCodec ID                                 : S_TEXT/UTF8\r\nCodec ID/Info                            : UTF-8 Plain Text\r\nTitle                                    : Completos Spa\r\nLanguage                                 : Spanish\r\nDefault                                  : No\r\nForced                                   : No\r\n\r\nText #3\r\nID                                       : 6\r\nFormat                                   : UTF-8\r\nCodec ID                                 : S_TEXT/UTF8\r\nCodec ID/Info                            : UTF-8 Plain Text\r\nTitle                                    : Completos Eng\r\nLanguage                                 : English\r\nDefault                                  : No\r\nForced                                   : No\r\n\r\nText #4\r\nID                                       : 7\r\nFormat                                   : UTF-8\r\nCodec ID                                 : S_TEXT/UTF8\r\nCodec ID/Info                            : UTF-8 Plain Text\r\nTitle                                    : BukerMovies\r\nLanguage                                 : Spanish\r\nDefault                                  : No\r\nForced                                   : No","torrent":{"xt":"urn:btih:7cc44bc5acaf7a98ce5cd62328b4891824b7fac2","amp;dn":"Vacaciones+2015+%5Bm720p%5D%5BSpanish%2CEnglish%5D","amp;tr":["udp%3A%2F%2Ftracker.leechers-paradise.org%3A6969","udp%3A%2F%2Fzer0day.ch%3A1337","udp%3A%2F%2Fopen.demonii.com%3A1337","udp%3A%2F%2Ftracker.coppersurfer.tk%3A6969","udp%3A%2F%2Fexodus.desync.com%3A6969"],"infoHash":"7cc44bc5acaf7a98ce5cd62328b4891824b7fac2","infoHashBuffer":{"type":"Buffer","data":[124,196,75,197,172,175,122,152,206,92,214,35,40,180,137,24,36,183,250,194]},"announce":[],"urlList":[]}}